# xmcd
#
# Track frame offsets:
#	150
#	16173
#	33748
#	47546
#	65659
#	76484
#	89626
#	101586
#	121804
#	135175
#	150240
#	163850
#	176359
#	192281
#
# Disc length: 2796 seconds
#
# Revision: 0
# Processed by: cddbd v1.5.2PL0 Copyright (c) Steve Scherf et al.
# Submitted via: dBpowerAMP V4.0
#
DISCID=aa0aea0e
DTITLE=Various Artist - Mad about music
DYEAR=1900
DGENRE=Jazz
TTITLE0=Liz Larssen - Crazy
TTITLE1=Liz Larssen - Your song
TTITLE2=Liz Larssen - You do something to me
TTITLE3=Liz Larssen - Have i told you lately that i love you
TTITLE4=Liz Larssen - Mad about the boy
TTITLE5=Liz Larssen - La vie en rose
TTITLE6=Liz Larssen - Stay as you are
TTITLE7=Liz Larssen - Feel like making love
TTITLE8=Liz Larssen - Sweet and gentle
TTITLE9=Liz Larssen - Just a dream
TTITLE10=Liz Larssen - She's no lady
TTITLE11=Liz Larssen and William Reven - Alright,okay,you win
TTITLE12=Liz Larssen - Till the end of time
TTITLE13=Liz Larssen - Summertime
EXTD=
EXTT0=
EXTT1=
EXTT2=
EXTT3=
EXTT4=
EXTT5=
EXTT6=
EXTT7=
EXTT8=
EXTT9=
EXTT10=
EXTT11=
EXTT12=
EXTT13=
PLAYORDER=
